<mxfile host="app.diagrams.net" modified="2022-11-02T15:12:33.010Z" agent="5.0 (Windows)" etag="xT5oP8yC_TNdgp4RDPee" version="20.5.1" type="github">
  <diagram id="4_XCW6oBCm1cpU5HytLm" name="Page-1">
    <mxGraphModel dx="782" dy="392" grid="1" gridSize="3" guides="1" tooltips="1" connect="1" arrows="1" fold="1" page="1" pageScale="1" pageWidth="1600" pageHeight="900" math="0" shadow="0">
      <root>
        <mxCell id="0" />
        <mxCell id="1" parent="0" />
        <mxCell id="z-evEIbB-mycxp6DsX3G-33" value="" style="verticalLabelPosition=bottom;html=1;verticalAlign=top;align=center;strokeColor=none;fillColor=#00BEF2;shape=mxgraph.azure.user;" parent="1" vertex="1">
          <mxGeometry x="462" y="186" width="47.5" height="50" as="geometry" />
        </mxCell>
        <mxCell id="z-evEIbB-mycxp6DsX3G-34" value="" style="aspect=fixed;html=1;points=[];align=center;image;fontSize=12;image=img/lib/azure2/general/Browser.svg;" parent="1" vertex="1">
          <mxGeometry x="516" y="206" width="65" height="52" as="geometry" />
        </mxCell>
        <mxCell id="cr2bw7VEWZrKkW5rvbbm-2" value="" style="endArrow=classic;startArrow=classic;html=1;rounded=0;entryX=0.556;entryY=0.149;entryDx=0;entryDy=0;entryPerimeter=0;exitX=0.96;exitY=0.7;exitDx=0;exitDy=0;exitPerimeter=0;edgeStyle=orthogonalEdgeStyle;" parent="1" edge="1">
          <mxGeometry width="50" height="50" relative="1" as="geometry">
            <mxPoint x="581.0000000000001" y="233.99999999999997" as="sourcePoint" />
            <mxPoint x="709.0320000000002" y="292.986" as="targetPoint" />
            <Array as="points">
              <mxPoint x="709" y="234" />
            </Array>
          </mxGeometry>
        </mxCell>
        <mxCell id="8oqUEQ3o3fASRwjpLCxz-61" value="TLS &amp;amp; OAuth" style="edgeLabel;html=1;align=center;verticalAlign=middle;resizable=0;points=[];fontSize=10;" parent="cr2bw7VEWZrKkW5rvbbm-2" vertex="1" connectable="0">
          <mxGeometry x="-0.2249" y="1" relative="1" as="geometry">
            <mxPoint x="1" y="11" as="offset" />
          </mxGeometry>
        </mxCell>
        <mxCell id="z-evEIbB-mycxp6DsX3G-1" value="&lt;div style=&quot;font-size: 14px;&quot;&gt;&lt;blockquote style=&quot;font-size: 14px;&quot;&gt;Kafka&lt;/blockquote&gt;&lt;/div&gt;" style="shape=cylinder3;whiteSpace=wrap;html=1;boundedLbl=1;backgroundOutline=1;size=15;rotation=90;fillColor=#f5f5f5;fontColor=#333333;strokeColor=#666666;align=center;verticalAlign=bottom;horizontal=0;fontStyle=1;fontSize=14;" parent="1" vertex="1">
          <mxGeometry x="658.33" y="185.14" width="94.43" height="598.27" as="geometry" />
        </mxCell>
        <mxCell id="z-evEIbB-mycxp6DsX3G-31" value="Notification" style="sketch=0;outlineConnect=0;dashed=0;verticalLabelPosition=bottom;verticalAlign=top;align=center;html=1;fontSize=12;fontStyle=0;aspect=fixed;shape=mxgraph.aws4.resourceIcon;resIcon=mxgraph.aws4.topic;" parent="1" vertex="1">
          <mxGeometry x="619" y="460" width="27" height="27" as="geometry" />
        </mxCell>
        <mxCell id="8oqUEQ3o3fASRwjpLCxz-5" value="Customer" style="sketch=0;outlineConnect=0;dashed=0;verticalLabelPosition=bottom;verticalAlign=top;align=center;html=1;fontSize=12;fontStyle=0;aspect=fixed;shape=mxgraph.aws4.resourceIcon;resIcon=mxgraph.aws4.topic;" parent="1" vertex="1">
          <mxGeometry x="750" y="462" width="27" height="27" as="geometry" />
        </mxCell>
        <mxCell id="8oqUEQ3o3fASRwjpLCxz-6" value="Prduct" style="sketch=0;outlineConnect=0;dashed=0;verticalLabelPosition=bottom;verticalAlign=top;align=center;html=1;fontSize=12;fontStyle=0;aspect=fixed;shape=mxgraph.aws4.resourceIcon;resIcon=mxgraph.aws4.topic;" parent="1" vertex="1">
          <mxGeometry x="846" y="462" width="27" height="27" as="geometry" />
        </mxCell>
        <mxCell id="8oqUEQ3o3fASRwjpLCxz-62" value="Alert" style="sketch=0;outlineConnect=0;dashed=0;verticalLabelPosition=bottom;verticalAlign=top;align=center;html=1;fontSize=12;fontStyle=0;aspect=fixed;shape=mxgraph.aws4.resourceIcon;resIcon=mxgraph.aws4.topic;" parent="1" vertex="1">
          <mxGeometry x="489" y="461.77" width="27" height="27" as="geometry" />
        </mxCell>
        <mxCell id="8oqUEQ3o3fASRwjpLCxz-79" value="" style="endArrow=classic;html=1;rounded=0;fontSize=10;entryX=0.5;entryY=0;entryDx=0;entryDy=0;" parent="1" edge="1">
          <mxGeometry width="50" height="50" relative="1" as="geometry">
            <mxPoint x="740" y="386" as="sourcePoint" />
            <mxPoint x="740" y="432" as="targetPoint" />
          </mxGeometry>
        </mxCell>
        <mxCell id="8oqUEQ3o3fASRwjpLCxz-80" value="" style="endArrow=classic;html=1;rounded=0;fontSize=10;entryX=0.75;entryY=1;entryDx=0;entryDy=0;" parent="1" edge="1">
          <mxGeometry width="50" height="50" relative="1" as="geometry">
            <mxPoint x="766" y="431" as="sourcePoint" />
            <mxPoint x="766" y="383" as="targetPoint" />
          </mxGeometry>
        </mxCell>
        <mxCell id="8oqUEQ3o3fASRwjpLCxz-82" value="" style="endArrow=classic;html=1;rounded=0;fontSize=10;" parent="1" edge="1">
          <mxGeometry width="50" height="50" relative="1" as="geometry">
            <mxPoint x="912" y="577" as="sourcePoint" />
            <mxPoint x="942" y="577" as="targetPoint" />
          </mxGeometry>
        </mxCell>
        <mxCell id="8oqUEQ3o3fASRwjpLCxz-83" value="" style="endArrow=classic;html=1;rounded=0;fontSize=10;" parent="1" edge="1">
          <mxGeometry width="50" height="50" relative="1" as="geometry">
            <mxPoint x="940" y="585" as="sourcePoint" />
            <mxPoint x="910" y="585" as="targetPoint" />
          </mxGeometry>
        </mxCell>
        <mxCell id="8oqUEQ3o3fASRwjpLCxz-84" value="" style="endArrow=classic;startArrow=classic;html=1;rounded=0;fontSize=10;" parent="1" edge="1">
          <mxGeometry width="50" height="50" relative="1" as="geometry">
            <mxPoint x="906" y="601" as="sourcePoint" />
            <mxPoint x="942" y="601" as="targetPoint" />
          </mxGeometry>
        </mxCell>
        <mxCell id="8oqUEQ3o3fASRwjpLCxz-85" value="Async" style="text;html=1;strokeColor=none;fillColor=none;align=center;verticalAlign=middle;whiteSpace=wrap;rounded=0;fontSize=10;" parent="1" vertex="1">
          <mxGeometry x="954" y="571" width="60" height="18" as="geometry" />
        </mxCell>
        <mxCell id="8oqUEQ3o3fASRwjpLCxz-86" value="Sync" style="text;html=1;strokeColor=none;fillColor=none;align=center;verticalAlign=middle;whiteSpace=wrap;rounded=0;fontSize=10;" parent="1" vertex="1">
          <mxGeometry x="955" y="592" width="60" height="18" as="geometry" />
        </mxCell>
        <mxCell id="8oqUEQ3o3fASRwjpLCxz-87" value="Legend" style="text;html=1;strokeColor=none;fillColor=none;align=center;verticalAlign=middle;whiteSpace=wrap;rounded=0;fontSize=10;" parent="1" vertex="1">
          <mxGeometry x="894" y="553" width="60" height="18" as="geometry" />
        </mxCell>
        <mxCell id="W5X7Oo440Hwi2OhU04SU-1" value="Salesforce platform" style="rounded=0;whiteSpace=wrap;html=1;fillColor=#dae8fc;strokeColor=#6c8ebf;verticalAlign=top;" parent="1" vertex="1">
          <mxGeometry x="402" y="321" width="594" height="60" as="geometry" />
        </mxCell>
        <mxCell id="W5X7Oo440Hwi2OhU04SU-5" value="&lt;div style=&quot;font-size: 11px;&quot;&gt;&lt;font style=&quot;font-size: 6px;&quot;&gt;&lt;b&gt;Platform Event Source Connector&lt;/b&gt;&lt;br&gt;&lt;/font&gt;&lt;/div&gt;" style="rounded=1;whiteSpace=wrap;html=1;fillColor=#dae8fc;strokeColor=#6c8ebf;" parent="1" vertex="1">
          <mxGeometry x="444" y="438" width="120" height="18" as="geometry" />
        </mxCell>
        <mxCell id="W5X7Oo440Hwi2OhU04SU-6" value="&lt;div style=&quot;font-size: 11px;&quot;&gt;&lt;font style=&quot;font-size: 6px;&quot;&gt;&lt;b&gt;Platform Event Sink Connector&lt;/b&gt;&lt;br&gt;&lt;/font&gt;&lt;/div&gt;" style="rounded=1;whiteSpace=wrap;html=1;fillColor=#dae8fc;strokeColor=#6c8ebf;" parent="1" vertex="1">
          <mxGeometry x="571" y="438" width="120" height="18" as="geometry" />
        </mxCell>
        <mxCell id="W5X7Oo440Hwi2OhU04SU-7" value="&lt;div style=&quot;font-size: 11px;&quot;&gt;&lt;font style=&quot;font-size: 6px;&quot;&gt;&lt;b&gt;CDC Source Connector&lt;/b&gt;&lt;br&gt;&lt;/font&gt;&lt;/div&gt;" style="rounded=1;whiteSpace=wrap;html=1;fillColor=#dae8fc;strokeColor=#6c8ebf;" parent="1" vertex="1">
          <mxGeometry x="699" y="438" width="120" height="18" as="geometry" />
        </mxCell>
        <mxCell id="W5X7Oo440Hwi2OhU04SU-8" value="&lt;div style=&quot;font-size: 11px;&quot;&gt;&lt;font style=&quot;font-size: 6px;&quot;&gt;&lt;b&gt;CDC Sink Connector&lt;/b&gt;&lt;br&gt;&lt;/font&gt;&lt;/div&gt;" style="rounded=1;whiteSpace=wrap;html=1;fillColor=#dae8fc;strokeColor=#6c8ebf;" parent="1" vertex="1">
          <mxGeometry x="829" y="438" width="120" height="18" as="geometry" />
        </mxCell>
        <mxCell id="W5X7Oo440Hwi2OhU04SU-13" value="&lt;div style=&quot;font-size: 11px;&quot;&gt;&lt;font style=&quot;font-size: 6px;&quot;&gt;&lt;b&gt;Kafka Connector Configuration &lt;br&gt;&lt;/b&gt;&lt;/font&gt;&lt;/div&gt;" style="rounded=1;whiteSpace=wrap;html=1;" parent="1" vertex="1">
          <mxGeometry x="444" y="363" width="120" height="18" as="geometry" />
        </mxCell>
        <mxCell id="W5X7Oo440Hwi2OhU04SU-17" value="&lt;font style=&quot;font-size: 6px;&quot;&gt;&lt;b&gt;Kafka Connector Configuration&lt;/b&gt;&lt;/font&gt;" style="rounded=1;whiteSpace=wrap;html=1;" parent="1" vertex="1">
          <mxGeometry x="576" y="363" width="120" height="18" as="geometry" />
        </mxCell>
        <mxCell id="W5X7Oo440Hwi2OhU04SU-18" value="&lt;font style=&quot;font-size: 6px;&quot;&gt;&lt;b&gt;Kafka Connector Configuration&lt;/b&gt;&lt;/font&gt;" style="rounded=1;whiteSpace=wrap;html=1;" parent="1" vertex="1">
          <mxGeometry x="704" y="363" width="120" height="18" as="geometry" />
        </mxCell>
        <mxCell id="W5X7Oo440Hwi2OhU04SU-19" value="&lt;font style=&quot;font-size: 6px;&quot;&gt;&lt;b&gt;Kafka Connector Configuration&lt;/b&gt;&lt;/font&gt;" style="rounded=1;whiteSpace=wrap;html=1;" parent="1" vertex="1">
          <mxGeometry x="835" y="363" width="120" height="18" as="geometry" />
        </mxCell>
        <mxCell id="W5X7Oo440Hwi2OhU04SU-20" value="" style="endArrow=classic;html=1;rounded=0;fontSize=10;entryX=0.5;entryY=0;entryDx=0;entryDy=0;" parent="1" edge="1">
          <mxGeometry width="50" height="50" relative="1" as="geometry">
            <mxPoint x="885" y="388" as="sourcePoint" />
            <mxPoint x="885" y="434" as="targetPoint" />
          </mxGeometry>
        </mxCell>
        <mxCell id="W5X7Oo440Hwi2OhU04SU-21" value="" style="endArrow=classic;html=1;rounded=0;fontSize=10;entryX=0.75;entryY=1;entryDx=0;entryDy=0;" parent="1" edge="1">
          <mxGeometry width="50" height="50" relative="1" as="geometry">
            <mxPoint x="911" y="433" as="sourcePoint" />
            <mxPoint x="911" y="385" as="targetPoint" />
          </mxGeometry>
        </mxCell>
        <mxCell id="W5X7Oo440Hwi2OhU04SU-22" value="" style="endArrow=classic;html=1;rounded=0;fontSize=10;entryX=0.5;entryY=0;entryDx=0;entryDy=0;" parent="1" edge="1">
          <mxGeometry width="50" height="50" relative="1" as="geometry">
            <mxPoint x="616" y="392" as="sourcePoint" />
            <mxPoint x="616" y="438" as="targetPoint" />
          </mxGeometry>
        </mxCell>
        <mxCell id="W5X7Oo440Hwi2OhU04SU-23" value="" style="endArrow=classic;html=1;rounded=0;fontSize=10;entryX=0.75;entryY=1;entryDx=0;entryDy=0;" parent="1" edge="1">
          <mxGeometry width="50" height="50" relative="1" as="geometry">
            <mxPoint x="642" y="437" as="sourcePoint" />
            <mxPoint x="642" y="389" as="targetPoint" />
          </mxGeometry>
        </mxCell>
        <mxCell id="W5X7Oo440Hwi2OhU04SU-24" value="" style="endArrow=classic;html=1;rounded=0;fontSize=10;entryX=0.5;entryY=0;entryDx=0;entryDy=0;" parent="1" edge="1">
          <mxGeometry width="50" height="50" relative="1" as="geometry">
            <mxPoint x="488" y="390" as="sourcePoint" />
            <mxPoint x="488" y="436" as="targetPoint" />
          </mxGeometry>
        </mxCell>
        <mxCell id="W5X7Oo440Hwi2OhU04SU-25" value="" style="endArrow=classic;html=1;rounded=0;fontSize=10;entryX=0.75;entryY=1;entryDx=0;entryDy=0;" parent="1" edge="1">
          <mxGeometry width="50" height="50" relative="1" as="geometry">
            <mxPoint x="514" y="435" as="sourcePoint" />
            <mxPoint x="514" y="387" as="targetPoint" />
          </mxGeometry>
        </mxCell>
      </root>
    </mxGraphModel>
  </diagram>
</mxfile>
